<svg xmlns="http://www.w3.org/2000/svg" xmlns:xlink="http://www.w3.org/1999/xlink" width="80" zoomAndPan="magnify" viewBox="0 0 60 60" height="80" preserveAspectRatio="xMidYMid meet" version="1.0"><defs><clipPath id="a70ca83742"><path d="M 1.277344 1.277344 L 59.027344 1.277344 L 59.027344 59 L 1.277344 59 Z M 1.277344 1.277344 " clip-rule="nonzero"/></clipPath><clipPath id="b705be3bb6"><path d="M 12 1.277344 L 16 1.277344 L 16 10 L 12 10 Z M 12 1.277344 " clip-rule="nonzero"/></clipPath></defs><g clip-path="url(#a70ca83742)"><path fill="#ffc600" d="M 58.207031 16.425781 L 54.480469 15.890625 C 53.890625 15.808594 53.726562 15.328125 53.6875 15.183594 C 53.652344 15.035156 53.566406 14.535156 54.039062 14.175781 L 57.050781 11.921875 C 57.253906 11.769531 57.390625 11.542969 57.425781 11.289062 C 57.460938 11.039062 57.394531 10.785156 57.242188 10.582031 L 53.796875 5.984375 C 53.644531 5.78125 53.414062 5.644531 53.164062 5.609375 C 52.910156 5.574219 52.660156 5.636719 52.457031 5.789062 L 49.445312 8.046875 C 48.96875 8.402344 48.511719 8.183594 48.382812 8.105469 C 48.253906 8.027344 47.839844 7.734375 47.921875 7.148438 L 48.453125 3.421875 C 48.53125 2.898438 48.164062 2.414062 47.640625 2.335938 L 41.953125 1.527344 C 41.703125 1.488281 41.445312 1.554688 41.242188 1.707031 C 41.039062 1.859375 40.90625 2.085938 40.867188 2.339844 L 40.335938 6.0625 C 40.253906 6.652344 39.769531 6.820312 39.625 6.855469 C 39.480469 6.894531 38.976562 6.976562 38.621094 6.503906 L 36.363281 3.492188 C 36.210938 3.289062 35.984375 3.15625 35.734375 3.117188 C 35.484375 3.082031 35.226562 3.148438 35.023438 3.300781 L 32.144531 5.460938 C 30.828125 5.324219 29.507812 5.320312 28.226562 5.460938 C 19.734375 6.398438 12.988281 13.261719 12.183594 21.777344 C 12.15625 22.046875 12.148438 22.316406 12.136719 22.585938 L 11.847656 22.585938 C 11.394531 22.585938 11 22.902344 10.910156 23.347656 L 10.25 26.492188 L 7.601562 24.671875 C 7.222656 24.40625 6.707031 24.453125 6.382812 24.78125 L 3.507812 27.65625 C 3.179688 27.980469 3.132812 28.496094 3.398438 28.875 L 5.21875 31.519531 L 2.070312 32.183594 C 1.628906 32.277344 1.3125 32.667969 1.3125 33.121094 L 1.3125 36.953125 C 1.3125 37.40625 1.628906 37.796875 2.070312 37.890625 L 5.21875 38.550781 L 3.398438 41.199219 C 3.132812 41.578125 3.179688 42.09375 3.507812 42.417969 L 6.382812 45.289062 C 6.707031 45.617188 7.222656 45.667969 7.601562 45.402344 L 10.25 43.578125 L 10.910156 46.726562 C 11 47.167969 11.394531 47.488281 11.847656 47.488281 L 15.675781 47.488281 C 16.128906 47.488281 16.519531 47.167969 16.613281 46.726562 L 17.277344 43.578125 L 19.921875 45.402344 C 20.300781 45.664062 20.816406 45.617188 21.144531 45.289062 L 22.632812 43.800781 L 22.632812 46.527344 C 22.632812 47.941406 23.410156 49.164062 24.550781 49.828125 L 24.550781 55.148438 C 24.550781 57.261719 26.269531 58.980469 28.378906 58.980469 L 32.210938 58.980469 C 34.324219 58.980469 36.042969 57.261719 36.042969 55.148438 L 36.042969 49.828125 C 37.183594 49.164062 37.957031 47.941406 37.957031 46.527344 L 37.957031 42.738281 C 37.957031 41.1875 38.785156 39.726562 40.171875 38.828125 C 40.964844 38.316406 41.722656 37.734375 42.425781 37.105469 L 41.148438 35.679688 C 40.519531 36.242188 39.839844 36.761719 39.132812 37.222656 C 37.195312 38.472656 36.042969 40.535156 36.042969 42.738281 L 36.042969 46.527344 C 36.042969 47.585938 35.183594 48.445312 34.125 48.445312 L 26.464844 48.445312 C 25.410156 48.445312 24.550781 47.585938 24.550781 46.527344 L 24.550781 42.660156 C 24.550781 40.496094 23.414062 38.476562 21.511719 37.253906 C 16.355469 33.941406 13.511719 28.082031 14.089844 21.957031 C 14.808594 14.339844 20.84375 8.203125 28.4375 7.367188 C 28.984375 7.304688 29.535156 7.277344 30.089844 7.273438 C 30.082031 7.3125 30.058594 7.34375 30.054688 7.378906 C 30.019531 7.632812 30.082031 7.886719 30.234375 8.089844 L 32.492188 11.097656 C 32.847656 11.574219 32.628906 12.035156 32.550781 12.164062 C 32.472656 12.292969 32.175781 12.703125 31.589844 12.621094 L 27.867188 12.089844 C 27.34375 12.019531 26.855469 12.378906 26.78125 12.902344 L 25.96875 18.589844 C 25.933594 18.84375 26 19.097656 26.152344 19.300781 C 26.304688 19.503906 26.53125 19.636719 26.78125 19.675781 L 30.507812 20.207031 C 31.09375 20.289062 31.261719 20.773438 31.300781 20.917969 C 31.335938 21.0625 31.421875 21.566406 30.945312 21.921875 L 27.9375 24.179688 C 27.511719 24.496094 27.425781 25.097656 27.746094 25.519531 L 31.191406 30.117188 C 31.507812 30.539062 32.109375 30.625 32.53125 30.308594 L 35.542969 28.050781 C 36.019531 27.695312 36.476562 27.914062 36.605469 27.992188 C 36.734375 28.066406 37.148438 28.363281 37.066406 28.953125 L 36.53125 32.675781 C 36.457031 33.199219 36.820312 33.6875 37.34375 33.761719 L 43.035156 34.574219 C 43.078125 34.582031 43.125 34.582031 43.167969 34.582031 C 43.375 34.582031 43.578125 34.515625 43.742188 34.390625 C 43.949219 34.238281 44.082031 34.011719 44.117188 33.761719 L 44.652344 30.035156 C 44.734375 29.449219 45.214844 29.28125 45.359375 29.246094 C 45.507812 29.207031 46.007812 29.121094 46.367188 29.597656 L 48.621094 32.605469 C 48.9375 33.03125 49.539062 33.113281 49.960938 32.796875 L 54.558594 29.351562 C 54.984375 29.035156 55.070312 28.433594 54.75 28.011719 L 52.492188 25 C 52.136719 24.523438 52.359375 24.066406 52.4375 23.9375 C 52.511719 23.808594 52.804688 23.390625 53.394531 23.476562 L 57.121094 24.011719 C 57.648438 24.085938 58.128906 23.722656 58.203125 23.199219 L 59.019531 17.507812 C 59.054688 17.257812 58.988281 17.003906 58.835938 16.800781 C 58.683594 16.59375 58.457031 16.460938 58.207031 16.425781 Z M 13.796875 31.210938 C 14.671875 33.097656 15.871094 34.828125 17.351562 36.328125 C 16.8125 37.824219 15.382812 38.867188 13.761719 38.867188 C 11.648438 38.867188 9.929688 37.148438 9.929688 35.035156 C 9.929688 32.925781 11.648438 31.207031 13.761719 31.207031 C 13.773438 31.207031 13.785156 31.210938 13.796875 31.210938 Z M 32.210938 57.0625 L 28.378906 57.0625 C 27.324219 57.0625 26.464844 56.203125 26.464844 55.148438 L 26.464844 54.191406 L 34.125 54.191406 L 34.125 55.148438 C 34.125 56.203125 33.269531 57.0625 32.210938 57.0625 Z M 34.125 50.359375 L 34.125 52.273438 L 26.464844 52.273438 L 26.464844 50.359375 Z M 22.40625 41.316406 L 20.351562 43.371094 L 18.363281 42 C 17.835938 41.636719 17.164062 41.558594 16.566406 41.800781 C 15.96875 42.039062 15.535156 42.554688 15.402344 43.183594 L 14.902344 45.570312 L 12.625 45.570312 L 12.125 43.183594 C 11.988281 42.554688 11.554688 42.039062 10.960938 41.800781 C 10.363281 41.5625 9.691406 41.636719 9.160156 42.003906 L 7.171875 43.375 L 5.425781 41.628906 L 6.796875 39.640625 C 7.164062 39.113281 7.238281 38.4375 7 37.839844 C 6.761719 37.246094 6.246094 36.808594 5.617188 36.679688 L 3.230469 36.175781 L 3.230469 33.898438 L 5.617188 33.398438 C 6.246094 33.265625 6.761719 32.832031 7 32.234375 C 7.238281 31.636719 7.164062 30.964844 6.796875 30.4375 L 5.425781 28.449219 L 7.171875 26.703125 L 9.160156 28.074219 C 9.691406 28.4375 10.363281 28.511719 10.957031 28.277344 C 11.554688 28.039062 11.988281 27.519531 12.125 26.890625 L 12.289062 26.09375 C 12.445312 27.203125 12.699219 28.289062 13.050781 29.339844 C 10.214844 29.691406 8.015625 32.109375 8.015625 35.035156 C 8.015625 38.207031 10.59375 40.78125 13.761719 40.78125 C 15.929688 40.78125 17.867188 39.53125 18.839844 37.671875 C 19.363281 38.09375 19.902344 38.496094 20.476562 38.867188 C 21.414062 39.46875 22.082031 40.339844 22.40625 41.316406 Z M 56.445312 21.976562 L 53.667969 21.582031 C 52.484375 21.410156 51.394531 21.941406 50.789062 22.960938 C 50.1875 23.980469 50.25 25.203125 50.964844 26.148438 L 52.644531 28.394531 L 49.582031 30.691406 L 47.898438 28.449219 C 47.1875 27.5 46.035156 27.089844 44.886719 27.386719 C 43.742188 27.683594 42.921875 28.59375 42.753906 29.765625 L 42.359375 32.539062 L 38.566406 32 L 38.964844 29.222656 C 39.128906 28.050781 38.601562 26.949219 37.582031 26.34375 C 36.5625 25.742188 35.34375 25.804688 34.394531 26.519531 L 32.152344 28.203125 L 29.851562 25.136719 L 32.097656 23.453125 C 33.042969 22.742188 33.449219 21.589844 33.15625 20.441406 C 32.863281 19.292969 31.949219 18.476562 30.78125 18.308594 L 28.003906 17.914062 L 28.542969 14.121094 L 31.320312 14.519531 C 32.496094 14.683594 33.597656 14.15625 34.199219 13.136719 C 34.804688 12.121094 34.738281 10.898438 34.023438 9.949219 L 32.34375 7.707031 L 35.40625 5.40625 L 37.089844 7.652344 C 37.800781 8.597656 38.953125 9.007812 40.101562 8.710938 C 41.25 8.417969 42.066406 7.507812 42.234375 6.335938 L 42.628906 3.558594 L 46.421875 4.097656 L 46.023438 6.875 C 45.859375 8.046875 46.386719 9.152344 47.40625 9.753906 C 48.421875 10.359375 49.644531 10.292969 50.59375 9.582031 L 52.835938 7.898438 L 55.136719 10.960938 L 52.890625 12.644531 C 51.945312 13.355469 51.539062 14.507812 51.832031 15.65625 C 52.125 16.804688 53.039062 17.621094 54.207031 17.789062 L 56.984375 18.1875 Z M 56.445312 21.976562 " fill-opacity="1" fill-rule="nonzero"/></g><path fill="#ffc600" d="M 42.492188 10.390625 C 38.269531 10.390625 34.832031 13.824219 34.832031 18.050781 C 34.832031 22.273438 38.269531 25.710938 42.492188 25.710938 C 46.71875 25.710938 50.15625 22.273438 50.15625 18.050781 C 50.15625 13.824219 46.71875 10.390625 42.492188 10.390625 Z M 42.492188 23.796875 C 39.324219 23.796875 36.746094 21.21875 36.746094 18.050781 C 36.746094 14.882812 39.324219 12.304688 42.492188 12.304688 C 45.664062 12.304688 48.238281 14.882812 48.238281 18.050781 C 48.238281 21.21875 45.664062 23.796875 42.492188 23.796875 Z M 42.492188 23.796875 " fill-opacity="1" fill-rule="nonzero"/><path fill="#ffc600" d="M 29.339844 43.65625 L 31.253906 43.65625 L 31.253906 46.527344 L 29.339844 46.527344 Z M 29.339844 43.65625 " fill-opacity="1" fill-rule="nonzero"/><path fill="#ffc600" d="M 26.105469 34.25 C 21.667969 32.511719 18.804688 28.308594 18.804688 23.542969 C 18.804688 19.574219 20.808594 15.941406 24.171875 13.820312 L 23.148438 12.199219 C 19.226562 14.671875 16.886719 18.914062 16.886719 23.542969 C 16.886719 29.105469 20.230469 34.007812 25.40625 36.03125 C 27.796875 36.96875 29.339844 39.207031 29.339844 41.742188 L 31.253906 41.742188 C 31.253906 38.414062 29.234375 35.472656 26.105469 34.25 Z M 26.105469 34.25 " fill-opacity="1" fill-rule="nonzero"/><path fill="#ffc600" d="M 48.492188 36.953125 L 55.195312 36.953125 L 55.195312 38.867188 L 48.492188 38.867188 Z M 48.492188 36.953125 " fill-opacity="1" fill-rule="nonzero"/><path fill="#ffc600" d="M 46.921875 43.433594 L 48.148438 41.960938 L 53.894531 46.75 L 52.667969 48.222656 Z M 46.921875 43.433594 " fill-opacity="1" fill-rule="nonzero"/><path fill="#ffc600" d="M 42.746094 44.613281 L 44.660156 44.613281 L 44.660156 51.316406 L 42.746094 51.316406 Z M 42.746094 44.613281 " fill-opacity="1" fill-rule="nonzero"/><path fill="#ffc600" d="M 2.289062 17.828125 L 9.949219 15.910156 L 10.414062 17.769531 L 2.753906 19.683594 Z M 2.289062 17.828125 " fill-opacity="1" fill-rule="nonzero"/><path fill="#ffc600" d="M 3.882812 8.042969 L 4.992188 6.484375 L 11.699219 11.273438 L 10.585938 12.832031 Z M 3.882812 8.042969 " fill-opacity="1" fill-rule="nonzero"/><g clip-path="url(#b705be3bb6)"><path fill="#ffc600" d="M 12.085938 1.753906 L 13.941406 1.277344 L 15.902344 8.941406 L 14.046875 9.414062 Z M 12.085938 1.753906 " fill-opacity="1" fill-rule="nonzero"/></g></svg>