<svg xmlns="http://www.w3.org/2000/svg" xmlns:xlink="http://www.w3.org/1999/xlink" width="80" zoomAndPan="magnify" viewBox="0 0 60 60" height="80" preserveAspectRatio="xMidYMid meet" version="1.0"><defs><clipPath id="29f90eb5bd"><path d="M 10.863281 1.277344 L 49.113281 1.277344 L 49.113281 59 L 10.863281 59 Z M 10.863281 1.277344 " clip-rule="nonzero"/></clipPath></defs><g clip-path="url(#29f90eb5bd)"><path fill="#ffc600" d="M 47.199219 18.613281 L 12.777344 18.613281 L 12.777344 16.691406 L 47.199219 16.691406 Z M 43.128906 36.878906 C 39.699219 36.742188 34.945312 33.847656 30.339844 31.046875 C 25.183594 27.910156 19.863281 24.675781 15.296875 24.402344 L 14.816406 20.535156 L 45.160156 20.535156 Z M 19.359375 57.078125 L 19.117188 55.152344 L 33.8125 55.152344 C 34.339844 55.152344 34.769531 54.722656 34.769531 54.191406 C 34.769531 53.660156 34.339844 53.230469 33.8125 53.230469 L 18.878906 53.230469 L 16.496094 34.054688 C 19.96875 34.480469 24.558594 37.335938 29.007812 40.105469 C 33.691406 43.019531 38.144531 45.792969 41.949219 46.382812 L 41.097656 53.230469 L 37.636719 53.230469 C 37.109375 53.230469 36.683594 53.660156 36.683594 54.191406 C 36.683594 54.722656 37.109375 55.152344 37.636719 55.152344 L 40.859375 55.152344 L 40.621094 57.078125 Z M 15.539062 26.347656 C 19.5625 26.738281 24.53125 29.761719 29.347656 32.695312 C 34.308594 35.710938 39.003906 38.566406 42.890625 38.789062 L 42.1875 44.472656 C 38.753906 43.910156 34.320312 41.152344 30.011719 38.46875 C 24.988281 35.34375 20.230469 32.382812 16.253906 32.097656 Z M 29.03125 3.226562 L 30.945312 3.226562 L 30.945312 14.765625 L 29.03125 14.765625 Z M 48.15625 14.765625 L 32.855469 14.765625 L 32.855469 2.265625 C 32.855469 1.734375 32.429688 1.304688 31.902344 1.304688 L 28.074219 1.304688 C 27.546875 1.304688 27.121094 1.734375 27.121094 2.265625 L 27.121094 14.765625 L 11.820312 14.765625 C 11.292969 14.765625 10.863281 15.195312 10.863281 15.726562 L 10.863281 19.574219 C 10.863281 20.105469 11.292969 20.535156 11.820312 20.535156 L 12.886719 20.535156 L 17.566406 58.160156 C 17.625 58.640625 18.03125 59 18.511719 59 L 41.464844 59 C 41.945312 59 42.351562 58.640625 42.414062 58.160156 L 47.089844 20.535156 L 48.15625 20.535156 C 48.683594 20.535156 49.113281 20.105469 49.113281 19.574219 L 49.113281 15.726562 C 49.113281 15.195312 48.683594 14.765625 48.15625 14.765625 " fill-opacity="1" fill-rule="nonzero"/></g></svg>