<svg xmlns="http://www.w3.org/2000/svg" xmlns:xlink="http://www.w3.org/1999/xlink" width="80" zoomAndPan="magnify" viewBox="0 0 60 60" height="80" preserveAspectRatio="xMidYMid meet" version="1.0"><defs><clipPath id="10b243db6b"><path d="M 4.671875 1.277344 L 55.671875 1.277344 L 55.671875 59.027344 L 4.671875 59.027344 Z M 4.671875 1.277344 " clip-rule="nonzero"/></clipPath></defs><g clip-path="url(#10b243db6b)"><path fill="#ffc600" d="M 16.769531 20.195312 C 17.136719 20.554688 17.144531 21.140625 16.785156 21.507812 L 13.757812 24.632812 C 13.398438 25 12.808594 25.007812 12.441406 24.652344 L 11.550781 23.785156 C 11.183594 23.433594 11.171875 22.847656 11.527344 22.476562 C 11.882812 22.109375 12.472656 22.101562 12.839844 22.457031 L 13.066406 22.675781 L 15.453125 20.210938 C 15.8125 19.847656 16.402344 19.835938 16.769531 20.195312 Z M 8.945312 26.695312 L 8.945312 18.152344 C 8.945312 17.636719 9.363281 17.21875 9.878906 17.21875 L 18.4375 17.21875 C 18.953125 17.21875 19.371094 17.636719 19.371094 18.152344 L 19.371094 26.699219 C 19.371094 27.210938 18.953125 27.628906 18.4375 27.628906 L 9.878906 27.628906 C 9.363281 27.628906 8.945312 27.210938 8.945312 26.695312 Z M 10.808594 25.765625 L 17.503906 25.765625 L 17.503906 19.078125 L 10.808594 19.078125 Z M 22.300781 19.082031 L 42.796875 19.082031 C 43.3125 19.082031 43.730469 18.664062 43.730469 18.152344 C 43.730469 17.636719 43.3125 17.21875 42.796875 17.21875 L 22.300781 17.21875 C 21.785156 17.21875 21.367188 17.636719 21.367188 18.152344 C 21.367188 18.664062 21.785156 19.082031 22.300781 19.082031 Z M 22.300781 23.355469 L 38.253906 23.355469 C 38.765625 23.355469 39.183594 22.9375 39.183594 22.425781 C 39.183594 21.910156 38.765625 21.492188 38.253906 21.492188 L 22.300781 21.492188 C 21.785156 21.492188 21.367188 21.910156 21.367188 22.425781 C 21.367188 22.9375 21.785156 23.355469 22.300781 23.355469 Z M 33.339844 40.644531 L 33.339844 43.582031 C 33.339844 44.0625 32.964844 44.472656 32.476562 44.507812 L 29.648438 44.722656 C 29.566406 44.996094 29.46875 45.257812 29.363281 45.511719 C 29.257812 45.769531 29.136719 46.023438 29.003906 46.273438 L 30.8125 48.371094 C 31.171875 48.734375 31.171875 49.324219 30.808594 49.6875 L 28.730469 51.761719 C 28.386719 52.097656 27.835938 52.125 27.464844 51.808594 L 25.3125 49.960938 C 25.066406 50.089844 24.8125 50.210938 24.550781 50.320312 L 24.542969 50.320312 C 24.289062 50.425781 24.027344 50.519531 23.757812 50.601562 L 23.546875 53.382812 C 23.535156 53.882812 23.121094 54.289062 22.613281 54.289062 L 19.675781 54.289062 C 19.191406 54.289062 18.78125 53.917969 18.746094 53.425781 L 18.53125 50.601562 C 18.257812 50.519531 17.996094 50.421875 17.742188 50.316406 C 17.476562 50.207031 17.222656 50.089844 16.980469 49.957031 L 14.878906 51.761719 C 14.511719 52.121094 13.925781 52.121094 13.5625 51.757812 L 11.480469 49.683594 C 11.144531 49.34375 11.117188 48.792969 11.433594 48.421875 L 13.285156 46.269531 C 13.152344 46.019531 13.03125 45.765625 12.925781 45.507812 C 12.820312 45.253906 12.722656 44.992188 12.640625 44.71875 L 9.855469 44.507812 C 9.351562 44.496094 8.945312 44.085938 8.945312 43.578125 L 8.945312 40.644531 C 8.945312 40.160156 9.320312 39.753906 9.808594 39.714844 L 12.640625 39.5 C 12.71875 39.25 12.804688 39.003906 12.902344 38.761719 L 12.925781 38.714844 C 13.03125 38.453125 13.152344 38.203125 13.285156 37.953125 L 11.476562 35.851562 C 11.117188 35.488281 11.117188 34.902344 11.480469 34.539062 L 13.558594 32.464844 C 13.902344 32.125 14.453125 32.097656 14.824219 32.414062 L 16.980469 34.261719 C 17.210938 34.140625 17.445312 34.027344 17.695312 33.925781 L 17.742188 33.902344 C 17.996094 33.796875 18.261719 33.703125 18.53125 33.621094 L 18.742188 30.839844 C 18.757812 30.335938 19.167969 29.933594 19.675781 29.933594 L 22.617188 29.933594 C 23.097656 29.933594 23.507812 30.308594 23.542969 30.792969 L 23.761719 33.621094 C 24.03125 33.703125 24.292969 33.796875 24.550781 33.902344 C 24.808594 34.011719 25.0625 34.132812 25.308594 34.261719 L 27.414062 32.457031 C 27.777344 32.097656 28.367188 32.097656 28.730469 32.460938 L 30.808594 34.539062 C 31.144531 34.878906 31.171875 35.429688 30.855469 35.796875 L 29.003906 37.949219 C 29.125 38.183594 29.242188 38.421875 29.34375 38.664062 L 29.363281 38.710938 C 29.46875 38.964844 29.566406 39.230469 29.648438 39.5 L 32.429688 39.710938 C 32.9375 39.726562 33.339844 40.140625 33.339844 40.644531 Z M 31.476562 41.507812 L 28.851562 41.308594 C 28.40625 41.273438 28.0625 40.9375 28 40.519531 C 27.910156 40.148438 27.792969 39.785156 27.644531 39.425781 L 27.628906 39.382812 C 27.476562 39.019531 27.292969 38.675781 27.085938 38.347656 C 26.863281 37.996094 26.90625 37.546875 27.164062 37.246094 L 28.882812 35.246094 L 28.019531 34.386719 L 26.019531 36.101562 C 25.6875 36.386719 25.214844 36.394531 24.875 36.152344 C 24.550781 35.949219 24.203125 35.769531 23.839844 35.621094 L 23.835938 35.617188 C 23.457031 35.464844 23.070312 35.339844 22.679688 35.253906 C 22.269531 35.164062 21.984375 34.8125 21.953125 34.414062 L 21.75 31.792969 L 20.539062 31.792969 L 20.335938 34.414062 C 20.304688 34.859375 19.96875 35.203125 19.546875 35.265625 C 19.175781 35.351562 18.8125 35.472656 18.457031 35.617188 L 18.410156 35.636719 C 18.054688 35.785156 17.710938 35.96875 17.375 36.179688 C 17 36.417969 16.523438 36.355469 16.222656 36.058594 L 14.269531 34.386719 L 13.40625 35.246094 L 15.125 37.242188 C 15.410156 37.574219 15.417969 38.046875 15.175781 38.386719 C 14.972656 38.707031 14.792969 39.054688 14.640625 39.425781 L 14.621094 39.46875 C 14.476562 39.824219 14.359375 40.199219 14.277344 40.578125 C 14.183594 40.988281 13.835938 41.273438 13.4375 41.300781 L 10.8125 41.503906 L 10.8125 42.71875 L 13.4375 42.917969 C 13.878906 42.949219 14.226562 43.285156 14.289062 43.707031 C 14.375 44.074219 14.492188 44.441406 14.640625 44.796875 C 14.800781 45.179688 14.988281 45.542969 15.203125 45.875 C 15.429688 46.226562 15.382812 46.675781 15.125 46.976562 L 13.40625 48.976562 L 14.269531 49.835938 L 16.269531 48.121094 C 16.585938 47.847656 17.035156 47.828125 17.371094 48.042969 C 17.722656 48.261719 18.082031 48.453125 18.449219 48.601562 L 18.453125 48.605469 C 18.832031 48.757812 19.21875 48.882812 19.609375 48.96875 C 20.019531 49.0625 20.304688 49.410156 20.335938 49.808594 L 20.539062 52.429688 L 21.75 52.429688 L 21.953125 49.808594 C 21.984375 49.363281 22.320312 49.019531 22.742188 48.957031 C 23.117188 48.871094 23.480469 48.75 23.835938 48.605469 C 24.207031 48.449219 24.570312 48.261719 24.914062 48.042969 C 25.289062 47.804688 25.765625 47.867188 26.066406 48.164062 L 28.019531 49.835938 L 28.882812 48.976562 L 27.164062 46.980469 C 26.878906 46.648438 26.871094 46.175781 27.113281 45.835938 C 27.316406 45.515625 27.496094 45.167969 27.648438 44.796875 C 27.804688 44.421875 27.925781 44.035156 28.015625 43.644531 C 28.105469 43.234375 28.453125 42.949219 28.851562 42.921875 L 31.480469 42.71875 L 31.480469 41.507812 Z M 24.800781 38.464844 C 25.734375 39.398438 26.316406 40.6875 26.316406 42.113281 C 26.316406 43.535156 25.734375 44.820312 24.800781 45.757812 L 24.796875 45.761719 C 23.859375 46.695312 22.566406 47.273438 21.144531 47.273438 C 19.71875 47.273438 18.425781 46.699219 17.488281 45.761719 C 16.554688 44.828125 15.972656 43.539062 15.972656 42.113281 C 15.972656 40.6875 16.554688 39.398438 17.488281 38.464844 L 17.492188 38.460938 C 18.429688 37.527344 19.71875 36.949219 21.144531 36.949219 C 22.570312 36.953125 23.863281 37.53125 24.800781 38.464844 Z M 24.449219 42.113281 C 24.449219 41.203125 24.078125 40.378906 23.480469 39.78125 C 22.882812 39.183594 22.054688 38.8125 21.140625 38.8125 C 20.226562 38.8125 19.398438 39.183594 18.800781 39.777344 C 18.207031 40.375 17.835938 41.199219 17.835938 42.113281 C 17.835938 43.023438 18.207031 43.847656 18.804688 44.445312 C 19.402344 45.042969 20.230469 45.414062 21.144531 45.414062 C 22.058594 45.414062 22.886719 45.046875 23.480469 44.449219 L 23.484375 44.445312 C 24.078125 43.851562 24.449219 43.027344 24.449219 42.113281 Z M 50.449219 42.796875 L 42.808594 50.679688 L 41.027344 48.957031 C 40.660156 48.601562 40.074219 48.613281 39.71875 48.980469 C 39.363281 49.347656 39.371094 49.933594 39.738281 50.289062 L 42.1875 52.652344 C 42.554688 53.007812 43.144531 53 43.5 52.632812 L 51.78125 44.082031 C 52.136719 43.71875 52.125 43.128906 51.757812 42.773438 C 51.390625 42.417969 50.804688 42.429688 50.449219 42.796875 Z M 55.660156 39.949219 L 55.660156 49.859375 L 55.65625 49.859375 L 55.65625 49.882812 C 55.480469 56.453125 51.140625 57.601562 46.925781 58.710938 L 46.214844 58.902344 C 46.179688 58.914062 46.144531 58.921875 46.109375 58.929688 L 45.9375 58.976562 C 45.777344 59.019531 45.605469 59.027344 45.433594 58.976562 L 45.324219 58.949219 L 5.625 58.949219 C 5.109375 58.949219 4.691406 58.53125 4.691406 58.015625 L 4.695312 57.933594 L 4.761719 8.695312 C 4.761719 8.179688 5.179688 7.765625 5.691406 7.765625 L 5.691406 7.761719 L 14.183594 7.761719 L 14.183594 6.199219 C 14.183594 5.683594 14.601562 5.269531 15.113281 5.269531 L 20.796875 5.269531 C 21.238281 4.195312 21.964844 3.265625 22.878906 2.574219 C 23.957031 1.761719 25.296875 1.277344 26.742188 1.277344 C 28.1875 1.277344 29.527344 1.761719 30.605469 2.574219 C 31.523438 3.265625 32.246094 4.195312 32.691406 5.265625 L 38.371094 5.265625 C 38.886719 5.265625 39.304688 5.683594 39.304688 6.199219 L 39.304688 7.761719 L 47.796875 7.761719 C 48.308594 7.761719 48.726562 8.179688 48.726562 8.691406 L 48.726562 37.125 C 49.035156 37.277344 49.359375 37.425781 49.691406 37.566406 C 51.4375 38.3125 53.398438 38.863281 54.765625 39.019531 C 55.261719 39.039062 55.660156 39.449219 55.660156 39.949219 Z M 22.886719 5.269531 L 30.601562 5.269531 C 30.304688 4.800781 29.925781 4.390625 29.484375 4.058594 C 28.722656 3.484375 27.769531 3.140625 26.742188 3.140625 C 25.714844 3.140625 24.765625 3.484375 24 4.058594 C 23.558594 4.390625 23.179688 4.800781 22.886719 5.269531 Z M 16.046875 7.128906 L 16.046875 10.257812 L 37.441406 10.257812 L 37.441406 8.695312 C 37.441406 8.691406 37.441406 8.691406 37.441406 8.691406 L 37.441406 7.128906 Z M 6.550781 57.085938 L 39.730469 57.085938 C 37.503906 55.902344 35.84375 53.9375 35.710938 49.976562 L 35.703125 49.859375 L 35.703125 39.949219 C 35.703125 39.480469 36.058594 39.074219 36.539062 39.023438 C 37.90625 38.878906 39.898438 38.320312 41.671875 37.566406 C 43.117188 36.949219 44.378906 36.222656 44.949219 35.519531 L 45.003906 35.457031 L 45.042969 35.414062 C 45.121094 35.34375 45.203125 35.289062 45.292969 35.246094 L 45.320312 35.234375 C 45.4375 35.1875 45.558594 35.164062 45.679688 35.164062 C 45.800781 35.164062 45.921875 35.1875 46.039062 35.234375 L 46.066406 35.246094 C 46.160156 35.289062 46.242188 35.34375 46.316406 35.414062 C 46.355469 35.449219 46.382812 35.484375 46.414062 35.519531 C 46.535156 35.667969 46.6875 35.816406 46.863281 35.964844 L 46.863281 9.625 L 39.304688 9.625 L 39.304688 11.1875 C 39.304688 11.703125 38.886719 12.117188 38.371094 12.117188 L 15.113281 12.117188 C 14.953125 12.117188 14.800781 12.078125 14.671875 12.007812 C 14.378906 11.847656 14.183594 11.542969 14.183594 11.1875 L 14.183594 9.625 L 6.621094 9.625 Z M 53.796875 49.859375 L 53.796875 40.753906 C 52.355469 40.496094 50.566406 39.960938 48.964844 39.277344 C 48.4375 39.050781 47.925781 38.808594 47.445312 38.550781 C 47.378906 38.523438 47.316406 38.488281 47.261719 38.449219 C 46.664062 38.117188 46.125 37.761719 45.679688 37.398438 C 44.847656 38.089844 43.671875 38.734375 42.398438 39.277344 C 40.796875 39.960938 39.007812 40.496094 37.566406 40.753906 L 37.566406 49.90625 C 37.734375 55.023438 41.375 55.984375 44.910156 56.917969 L 45.546875 57.085938 L 45.8125 57.085938 L 46.453125 56.917969 C 50 55.980469 53.648438 55.015625 53.796875 49.859375 Z M 53.796875 49.859375 " fill-opacity="1" fill-rule="nonzero"/></g></svg>