<svg xmlns="http://www.w3.org/2000/svg" xmlns:xlink="http://www.w3.org/1999/xlink" width="80" zoomAndPan="magnify" viewBox="0 0 60 60" height="80" preserveAspectRatio="xMidYMid meet" version="1.0"><defs><clipPath id="754b6541d0"><path d="M 1.277344 1.277344 L 59.027344 1.277344 L 59.027344 59.027344 L 1.277344 59.027344 Z M 1.277344 1.277344 " clip-rule="nonzero"/></clipPath></defs><g clip-path="url(#754b6541d0)"><path fill="#ffc600" d="M 7.902344 26.648438 C 7.648438 27.09375 7.078125 27.25 6.636719 26.992188 L 3.847656 25.402344 C 3.402344 25.144531 3.25 24.578125 3.503906 24.132812 C 3.761719 23.6875 4.328125 23.535156 4.773438 23.789062 L 7.558594 25.378906 C 8.003906 25.632812 8.15625 26.203125 7.902344 26.648438 Z M 59.007812 26.113281 C 59.035156 26.460938 58.863281 26.808594 58.542969 26.988281 L 45.046875 34.703125 L 45.046875 50.046875 C 45.074219 50.394531 44.902344 50.742188 44.582031 50.921875 L 30.660156 58.878906 C 30.652344 58.882812 30.648438 58.886719 30.644531 58.890625 C 30.617188 58.90625 30.589844 58.917969 30.5625 58.933594 C 30.554688 58.9375 30.542969 58.941406 30.535156 58.945312 C 30.5 58.960938 30.464844 58.976562 30.429688 58.988281 C 30.421875 58.988281 30.414062 58.988281 30.410156 58.992188 C 30.378906 59 30.34375 59.007812 30.3125 59.015625 C 30.300781 59.015625 30.292969 59.015625 30.28125 59.019531 C 30.242188 59.023438 30.203125 59.027344 30.160156 59.027344 C 30.121094 59.027344 30.082031 59.023438 30.042969 59.019531 C 30.03125 59.015625 30.019531 59.015625 30.007812 59.015625 C 29.976562 59.007812 29.941406 59 29.914062 58.992188 C 29.90625 58.992188 29.898438 58.988281 29.890625 58.988281 C 29.855469 58.976562 29.820312 58.960938 29.785156 58.945312 C 29.777344 58.941406 29.765625 58.9375 29.757812 58.933594 C 29.730469 58.921875 29.703125 58.90625 29.675781 58.890625 C 29.671875 58.886719 29.667969 58.882812 29.660156 58.878906 L 15.738281 50.921875 C 15.414062 50.738281 15.246094 50.394531 15.273438 50.046875 L 15.273438 34.703125 L 1.773438 26.992188 C 1.453125 26.808594 1.28125 26.460938 1.308594 26.113281 L 1.308594 10.300781 C 1.28125 9.953125 1.453125 9.605469 1.773438 9.425781 L 15.734375 1.445312 C 16.011719 1.289062 16.363281 1.277344 16.660156 1.445312 L 30.15625 9.160156 L 43.660156 1.445312 C 43.933594 1.289062 44.285156 1.277344 44.582031 1.445312 L 58.542969 9.421875 C 58.683594 9.5 58.800781 9.617188 58.886719 9.765625 C 58.984375 9.933594 59.019531 10.121094 59.007812 10.296875 Z M 4.109375 10.230469 L 16.199219 17.136719 L 16.964844 16.695312 L 19.253906 15.390625 L 7.164062 8.484375 Z M 9.039062 7.414062 L 21.125 14.320312 L 23.628906 12.890625 L 11.542969 5.980469 Z M 32.03125 10.230469 L 44.121094 17.136719 L 47.175781 15.390625 L 35.085938 8.480469 Z M 36.960938 7.410156 L 49.050781 14.320312 L 51.554688 12.886719 L 39.464844 5.980469 Z M 37.59375 36.824219 L 25.503906 29.914062 L 23 31.347656 L 35.085938 38.253906 Z M 29.230469 11.828125 L 26.433594 13.425781 L 26.433594 16.347656 C 26.433594 16.667969 26.265625 16.980469 25.964844 17.152344 L 21.714844 19.582031 C 21.570312 19.671875 21.398438 19.726562 21.214844 19.726562 C 20.703125 19.726562 20.285156 19.308594 20.285156 18.796875 L 20.285156 16.941406 L 17.128906 18.746094 L 17.128906 32.558594 L 20.964844 30.367188 L 29.230469 25.644531 Z M 22.144531 17.191406 L 24.570312 15.804688 L 24.570312 14.492188 L 23.878906 14.886719 L 22.144531 15.878906 Z M 31.085938 25.640625 L 43.191406 32.558594 L 43.191406 18.742188 L 31.085938 11.828125 Z M 30.941406 40.621094 L 33.214844 39.324219 L 21.125 32.417969 L 18.070312 34.164062 L 30.15625 41.070312 Z M 42.246094 34.164062 L 30.160156 27.253906 L 27.378906 28.84375 L 39.464844 35.753906 Z M 36.109375 41.128906 L 38.535156 39.742188 L 38.535156 38.425781 L 37.859375 38.8125 L 36.109375 39.8125 Z M 50.070312 17.191406 L 52.496094 15.804688 L 52.496094 14.492188 L 51.808594 14.882812 L 50.070312 15.878906 Z M 41.339844 4.910156 L 53.425781 11.816406 L 56.207031 10.226562 L 44.121094 3.320312 Z M 13.414062 4.910156 L 25.503906 11.816406 L 28.285156 10.226562 L 16.199219 3.320312 Z M 3.164062 25.644531 L 15.265625 32.558594 L 15.265625 18.746094 L 3.164062 11.828125 Z M 17.125 49.578125 L 29.226562 56.492188 L 29.226562 42.679688 L 17.125 35.761719 Z M 34.929688 54.300781 L 43.195312 49.578125 L 43.195312 35.765625 L 40.398438 37.363281 L 40.398438 40.28125 C 40.394531 40.601562 40.226562 40.914062 39.929688 41.085938 L 35.675781 43.515625 C 35.535156 43.609375 35.363281 43.660156 35.175781 43.660156 C 34.664062 43.660156 34.246094 43.246094 34.246094 42.730469 L 34.246094 40.875 L 31.089844 42.679688 L 31.089844 56.496094 Z M 48.890625 30.367188 L 57.15625 25.644531 L 57.15625 11.828125 L 54.355469 13.425781 L 54.355469 16.347656 C 54.355469 16.667969 54.1875 16.980469 53.886719 17.152344 L 49.636719 19.582031 C 49.492188 19.671875 49.324219 19.726562 49.136719 19.726562 C 48.625 19.726562 48.207031 19.308594 48.207031 18.796875 L 48.207031 16.941406 L 45.050781 18.746094 L 45.050781 32.5625 Z M 35.480469 25.378906 L 32.695312 23.789062 C 32.25 23.53125 31.679688 23.6875 31.425781 24.132812 C 31.171875 24.578125 31.328125 25.144531 31.773438 25.398438 L 34.558594 26.992188 C 35.003906 27.246094 35.574219 27.089844 35.828125 26.648438 C 36.082031 26.203125 35.925781 25.632812 35.480469 25.378906 Z M 21.519531 49.3125 L 18.734375 47.722656 C 18.289062 47.46875 17.71875 47.621094 17.464844 48.066406 C 17.210938 48.511719 17.367188 49.082031 17.808594 49.335938 L 20.597656 50.925781 C 21.042969 51.183594 21.609375 51.027344 21.863281 50.582031 C 22.121094 50.136719 21.964844 49.570312 21.519531 49.3125 Z M 21.519531 49.3125 " fill-opacity="1" fill-rule="nonzero"/></g></svg>